<?xml version="1.0" encoding="UTF-8" standalone="no"?>
<svg
  width="100%"
  viewBox="0 0 208 208"
  version="1.1"
  id="svg1"
  xmlns="http://www.w3.org/2000/svg"
  xmlns:svg="http://www.w3.org/2000/svg">
  <defs
    id="defs1"/>
  <!-- BACKGROUND -->
  <circle
    style="display:inline;fill:#000000"
    id="background"
    cx="104"
    cy="104"
    r="104"/>
  <!-- MASK -->
  <path
    id="mask"
    style="display:inline;fill:#ffffff"
    transform="translate(-16,-50)"
    d="m 110.85742,61.615234 4.74024,0.0332 8.86914,1.548829 5.1582,1.939453 6.10937,3.929687 8.29493,3.75586 9.82812,3.5625 1.86719,2.11914 3.04883,3.222656 1.37109,3.591797 0.94922,6.578125 -1.25781,5.296875 0.36914,2.40625 v 0.816414 l 2.32031,5.83398 0.98828,5.50195 v 0.004 l 0.36133,5.39258 0.11914,6.4707 v 0.74024 l 2.23242,0.25 0.57031,-2.9668 0.89649,-2.04688 0.006,-0.0137 1.99414,-3.80078 1.21484,-1.36719 1.36914,-0.0625 1.71289,1.64649 0.9961,7.5957 v 0.004 l -0.23438,10.30078 -1.49023,4.96093 -2.69922,9.51758 -1.08203,3.17774 -1.03906,1.63867 -0.82422,0.27344 -0.90625,0.95703 -1.35547,-0.15039 -0.69141,-0.5293 0.44727,-1.68945 -0.34766,-0.17774 -0.91406,1.11914 -0.61914,5.3125 v 0.004 l -1.13281,5.23633 -2.3418,6.13867 -0.002,0.004 -2.59375,4.95507 -2.27735,2.67774 -1.26172,21.68164 0.72852,6.46484 0.0664,5.23828 -1.86915,6.19727 -2.0664,3.11523 -2.64063,3.53125 -7.87304,10.74805 -11.36914,13.2168 -1.98633,0.76758 -4.36328,1.10742 -1.68555,-0.59375 -11.70312,-13.02539 -6.05079,-6.67578 -12.447262,-14.22852 -3.660156,-8.27539 -1.373047,-3.20313 v -18.5 l -4.826172,-4.52734 -2.101562,-2.79297 -1.556641,-2.86523 -0.0059,-0.01 -1.769532,-3.74023 -1.777343,-10.4375 v -0.01 l -0.002,-0.006 -1.224609,-13.60742 -1.214844,-13.86914 1.017578,-6.53125 0.976563,-8.4668 0.744141,-6.51367 0.863281,-6.53515 0.279297,-3.6875 -0.140625,-15.861336 1.880859,-3.800781 5.869141,-8.080078 0.0059,-0.0078 0.002,-0.002 6.070313,-7.447265 5.947265,-1.603516 0.01172,-0.002 12.177735,-2.605469 z"/>
  <!-- PORTRAIT -->
  <g
    id="portrait"
    transform="translate(-16,-50)">
    <g
      id="face">
      <g
        id="lighter-brown"
        style="fill:#deae86">
        <path
          d="m 168.24113,142.35543 -1.36523,1.16406 -1.30469,-0.0547 0.17578,3.00195 -0.52539,4.17969 -0.4043,1.42188 1.54492,0.23828 2.0586,-6.14649 z"
          id="path1267"/>
        <path
          d="m 148.6259,123.75386 -4.74415,4.64063 -0.004,0.004 -7.79492,5.51954 6.94726,2.33789 -1.35937,6.97656 4.25,-1.49414 -0.28711,-2.6875 2.4082,-7.51172 z"
          id="path1403"/>
        <path
          d="m 103.42082,131.36129 -2.73438,0.7207 -14.94531,12.74609 8.927734,0.48047 5.232422,-3.91406 z"
          id="path1539"/>
        <path
          d="m 86.504802,162.83589 -1.652344,5.08985 -0.865235,8.08984 6.119141,4.99414 11.816406,-9.93945 z"
          id="path874"/>
      </g>
      <g
        id="light-beige"
        style="fill:#f9dcc4">
        <path
          d="m 122.72746,97.830035 -8.85547,0.912109 -13.04492,-0.269531 4.17968,3.765627 9.19532,1.0293 4.4707,-0.73438 z"
          id="path1656"/>
        <path
          d="m 105.51457,121.373 -1.9375,0.38868 -1.79883,0.36328 -3.445313,-0.1836 -0.625,2.21485 -2.642579,2.3125 5.632812,5.77343 2.67578,-0.70507 0.0254,-2.41407 z"
          id="path2090"/>
        <path
          d="m 125.99894,141.71675 -2.73633,4.36133 3.79493,4.31641 4.61328,1.57617 3.44922,0.15039 z"
          id="path1537"/>
        <path
          d="m 90.934489,160.64254 -4.554687,2.30664 15.373048,8.21093 1.31055,0.53516 2.82617,-3.60742 -2.83399,-2.90039 -1.02343,-1.91602 0.21093,-0.75586 -6.326169,-1.77929 -3.132813,0.44335 z"
          id="path939"/>
      </g>
      <g
        id="light-purple"
        style="fill:#8f96b2">
        <path
          d="m 79.715739,100.94918 -5.539062,3.96289 -0.878907,6.66601 2.982422,-0.31445 -0.0332,-3.28125 0.619141,-0.61914 0.759765,-2.57813 2.958985,-3.19726 z"
          id="path1788"/>
        <path
          d="m 116.46574,150.1191 -3.49219,0.16992 -0.79883,6.0332 3.67578,-0.28906 2.92969,-0.6582 6.00391,1.79883 5.12109,0.42968 0.041,-0.14843 -12.29102,-6.0293 z"
          id="path1134"/>
        <path
          d="m 89.995036,109.95113 -8.388672,0.26953 -2.080078,0.91406 -2.027344,0.89258 -1.277344,-0.91797 -2.904296,0.30664 -0.759766,6.66407 2.630859,0.11914 4.289063,-3.85938 6.560547,-2.17773 0.0098,-0.002 3.585938,-0.69726 0.492187,-0.49024 z"
          id="path1948"/>
        <path
          d="m 159.3798,136.45113 -13.57031,5.1582 -4.05859,1.42578 -3.89844,1.1543 -2.06836,-0.0937 -0.0371,0.15234 10.73828,5.09766 2.58398,-2.60742 4.4336,-2.4961 5.12695,-3.24609 z"
          id="path1533"/>
        <path
          d="m 82.745036,155.56832 -5.125,3.30468 1.083984,3.92969 v 0.004 l 1.060547,12.38086 4.376953,0.88867 0.865235,-8.10742 1.630859,-5.02539 z"
          id="path742"/>
        <path
          d="m 122.97355,161.46089 -9.66211,1.65821 h -0.004 l -11.22071,-0.63086 -0.22461,0.80273 1.0625,1.98828 2.82618,2.89258 12.82031,0.11719 3.80469,-4.47461 z"
          id="path1337"/>
      </g>
      <g
        id="light-grey"
        style="fill:#e8eddf">
        <path
          d="m 72.575114,117.92183 -0.990234,8.58399 2.169922,1.73632 4.1875,-6.54882 0.966796,-2.56446 -2.742187,-0.35547 -0.980469,-0.73242 z"
          id="path2082"/>
        <path
          d="m 77.487223,80.427691 -1.251953,1.046875 -1.923828,3.890625 0.140625,15.914059 -0.292969,3.8418 5.640625,-4.03711 -1.9375,-15.378905 z"
          id="path1516"/>
        <path
          d="m 111.18449,114.58394 -3.72656,0.60547 -1.5,5.13281 -0.62891,1.125 -2.08984,7.65625 -0.0234,2.36328 -3.50586,9.9961 1.60156,-0.44727 3.58985,-5.27929 2.5625,-3.00782 1.61914,-7.77148 0.60547,-7.4668 1.04296,-1.9707 0.5586,0.0762 z"
          id="path2092"/>
        <path
          d="m 117.90129,174.7773 -9.41016,0.23242 -2.9707,7.46289 14.20312,0.43555 z"
          id="path1353"/>
      </g>
      <g
        id="lighter-grey"
        style="fill:#edede9">
        <path
          d="m 129.66691,96.558551 -4.16601,1.355468 -3,-0.06445 -4.04102,4.685541 4.80664,0.0703 11.40039,-1.35547 7.2207,0.56836 0.41407,-3.585938 -5.69922,-1.308594 -3.58399,-0.332031 z"
          id="path1658"/>
        <path
          d="m 144.19621,128.36519 -16.0918,0.60938 -0.45117,3.68945 3.23633,5.12891 z"
          id="path938"/>
        <path
          d="m 170.93644,123.06441 -1.9375,0.29297 -1.59961,1.36328 -1.90234,5.87109 1.8418,-0.57226 1.9082,1.17969 1.01758,4.14062 v 3.12109 l -0.53907,1.86915 2.32618,-0.86719 1.25,-7.65821 -1.12891,-7.28515 z"
          id="path1200"/>
        <path
          d="m 82.192302,144.67964 -8.347657,2.20118 3.822266,12.15039 5.095703,-3.28516 9.341797,-6.74414 2.685547,-3.8457 -8.845703,-0.47657 z"
          id="path608"/>
        <path
          d="m 85.049723,184.82027 v 18.62695 l 1.408204,3.28516 9.570312,4.13086 -0.667969,-18.38672 -5.951172,-4.48828 z"
          id="path1495"/>
      </g>
      <g
        id="light-blue"
        style="fill:#caf0f8">
        <path
          d="m 126.06144,80.84566 -0.23242,9.396484 -3.41406,7.763672 3.10937,0.06836 4.16797,-1.355469 3.39649,0.0332 1.43945,-12.146484 -7.06055,-3.6875 z"
          id="path1581"/>
        <path
          d="m 78.746989,119.10933 -0.947266,2.51367 -4.142578,6.47657 -0.0293,0.60156 2.277344,0.49414 9.820313,-0.75 9.492187,-1.89844 2.628906,-2.29883 0.646485,-2.29296 -18.322266,-2.02344 -0.826172,-0.7461 z"
          id="path2088"/>
        <path
          d="m 111.58879,114.51754 -0.56055,0.0918 0.0977,0.95703 1.62695,0.42969 1.17969,1.06641 1.63281,14.17773 2.3164,5.10156 2.36524,0.40625 2.92578,-0.17187 -5.29883,-8.4668 -0.70117,-10.9414 -0.80078,-1.78125 z"
          id="path2159"/>
        <path
          d="m 147.54972,118.71285 -3.96875,2.97461 -1.56054,0.55273 -7.1211,0.0332 -4.97265,0.67774 -1.14063,-0.14649 -0.70117,6.32813 15.88086,-0.59961 4.625,-4.52344 3.31836,-4.60156 -2.01758,0.0606 z"
          id="path2171"/>
        <path
          d="m 113.13371,150.28511 -7.875,0.0176 -4.5625,1.28125 -9.73633,4.60742 3.175781,3.66993 3.037109,-0.52344 8.22461,-3.44922 3.05859,0.46094 3.88086,-0.0352 z"
          id="path1069"/>
        <path
          d="m 100.97682,187.86234 4.24479,1.5918 6.89807,0.36452 7.39582,-0.23216 7.93872,-4.74305 -1.38487,-0.80176 -6.43551,-1.29374 -14.00697,-0.43048 -7.04276,1.66103 -1.66929,1.60252"
          id="path1357"/>
        <path
          d="m 86.364177,206.51949 3.757812,8.49805 12.503911,14.29296 8.54492,-0.80273 0.0351,-3.07617 -8.36328,-10.94727 -6.867185,-3.8164 z"
          id="path1499"/>
      </g>
      <g
        id="light-pink"
        style="fill:#ffe5d9">
        <path
          d="m 117.92472,136.18941 -6.8789,3.32031 -1.88672,-0.11523 -5.50586,-2.10547 -2.5,3.67773 0.88476,0.62696 1.72461,-0.26172 1.60547,0.29883 0.42188,0.27929 2.73437,0.5918 2.58985,0.0469 2.39257,-0.57032 3.78711,-3.34179 6.02735,-0.82032 -0.22071,-1.39648 -2.8496,0.16797 z"
          id="path1541"/>
        <path
          d="m 90.64152,69.40816 -13.304687,11.144531 0.371094,5.234375 6.4375,0.261719 6.320312,-12.783203 z"
          id="path557"/>
        <path
          d="m 159.64347,127.53902 -7.35351,3.46289 -4.38672,0.44727 -2.42969,7.58203 0.29297,2.76367 13.57813,-5.16211 0.20507,-0.79688 z"
          id="path1336"/>
        <path
          d="m 113.49308,204.14254 0.0996,8.71484 8.21094,-1.97656 2.96094,-1.7168 -0.0352,-1.99609 -2.6543,-2.72266 z"
          id="path1503"/>
        <path
          d="m 126.00112,184.18562 1.29099,0.74741 3.02195,-1.27593 4.38317,-3.28739 1.27659,-1.78049 0.33795,-3.92025 -13.31531,-4.49955 -5.24534,4.6588 1.79617,8.01621"
          id="path1355"/>
      </g>
      <g
        id="beige"
        style="fill:#fec89a">
        <path
          d="m 114.0009,66.646441 -0.99415,8.445313 13.11329,5.916015 1.30664,0.06836 7.05468,3.683594 4.70313,-10.884766 -7.92383,-2.544922 -7.81055,-2.978516 z"
          id="path689"/>
        <path
          d="m 90.024333,97.187457 -5.867188,0.599609 -4.576172,3.257814 0.859375,0.63476 8.388672,-0.36328 16.43164,0.9375 -4.1875,-3.773434 z"
          id="path1654"/>
        <path
          d="m 158.6591,140.78902 -5.27344,3.33984 -1.72266,16.46094 4.41211,-0.61133 z"
          id="path1343"/>
        <path
          d="m 71.778239,146.83199 1.234375,13.7168 1.789063,10.49414 1.808593,3.82226 3.316407,0.3457 -1.06836,-12.43945 -1.070312,-3.88672 -3.783203,-12.02734 z"
          id="path740"/>
        <path
          d="m 102.54582,214.35738 8.5,11.12695 -0.0332,3 6.31446,3.03906 8.24609,-0.40234 -2.07617,-11.42383 -11.12695,-1.22851 z"
          id="path1509"/>
      </g>
      <g
        id="white"
        style="fill:#ffffff">
        <path
          d="m 96.856364,72.763629 -6.519531,0.40625 -6.322266,12.785156 0.542969,3.238281 5.421875,8.148438 11.056639,1.294922 12.8418,0.263672 8.71289,-0.896485 3.39648,-7.730469 0.23243,-9.394531 -13.10547,-5.912109 z"
          id="path754"/>
        <path
          d="m 95.207927,126.38668 -9.503907,1.90039 -9.789062,0.74804 -2.279297,-0.49414 -0.236328,4.76172 8.763672,11.53711 h 3.810547 l 14.865238,-12.67969 z"
          id="path2086"/>
        <path
          d="m 136.24308,133.80464 -5.43945,3.85352 0.75,1.1875 4.18555,5.4082 2.13086,0.0957 3.97265,-1.17578 1.3711,-7.0254 z"
          id="path1468"/>
        <path
          d="m 105.74504,168.01363 -2.82422,3.60547 5.60351,3.54883 9.34571,-0.23243 5.28906,-4.69726 -4.60742,-2.10938 z"
          id="path1349"/>
        <path
          d="m 108.45988,235.74996 11.94727,13.29101 1.82617,0.64258 4.53711,-1.15039 -0.34375,-1.06836 3.46875,-5.1543 -0.27735,-1.45117 -2.18945,-1.88672 -9.875,-0.46484 z"
          id="path1513"/>
        <path
          d="m 110.64152,115.34761 -1.10937,2.09766 -0.60743,7.49023 -1.60937,7.72266 -2.54102,2.98242 -1.21093,1.78321 5.5625,2.1289 1.95117,0.11914 6.96289,-3.36328 -2.32031,-5.11328 -1.63672,-14.21094 -1.25196,-1.13086 -1.61914,-0.42773 z"
          id="path2094"/>
      </g>
      <g
        id="light-brown"
        style="fill:#ca8c67">
        <path
          d="m 166.29314,152.29623 0.67222,0.12065 1.29561,-0.69895 2.56656,-3.24986 2.74437,-9.67751 -1.6184,0.53952 -2.15894,0.8058 -1.70583,2.36078 0.17313,3.65631"
          id="path1269"/>
        <path
          d="m 104.9091,102.06832 1.64258,3.58984 1.21875,5.50391 -0.33789,4.1914 4.15625,-0.67578 4.85156,0.88281 -2.22461,-6.03125 0.52148,-3.35742 4.14258,-3.83398 -4.68359,0.76953 z"
          id="path1794"/>
        <path
          d="m 146.76457,78.076129 -4.62891,20.207031 -0.40234,3.48828 7.92968,5.3418 4.39844,-12.232424 2.02735,-5.748047 -2.07227,-6.419921 z"
          id="path1650"/>
        <path
          d="m 101.27824,140.86129 -1.478517,0.4121 -5.214843,3.89844 -2.591797,3.71485 -9.06836,6.54687 h 4.699219 l 3.472656,0.86914 9.708982,-4.5957 -0.31836,-6.94141 -0.921872,-0.57617 0.0957,-1.5918 2.558602,-1.07031 z"
          id="path675"/>
        <path
          d="m 126.51652,137.58004 0.36914,2.99023 -0.97851,1.2832 8.99609,10.25977 h 7.99023 l 3.72461,-2.87891 -10.79883,-5.12695 -5.17773,-2.96289 z"
          id="path1535"/>
        <path
          d="m 130.42668,159.94136 -7.625,1.55078 -0.57032,2.24805 -3.82617,4.49805 4.58399,2.09765 13.27539,4.48438 1.35937,-2.38086 1.85156,-6.70898 -7.24609,-5.57813 z"
          id="path1272"/>
        <path
          d="m 121.79386,210.72066 -8.18945,1.9707 -1.35351,5.92188 11.17578,1.23633 8.80468,-0.67774 z"
          id="path1505"/>
        <path
          d="m 147.96379,223.60152 -7.16016,3.84375 -3.02148,-2.72266 -3.8418,3.44141 -8.55469,2.83008 1.94141,8.09961 2.14648,1.85156 0.25391,1.33008 -3.47656,5.16406 0.36914,1.14063 2.14648,-0.83008 11.42773,-13.28321 7.8711,-10.74804 z"
          id="path1527"/>
      </g>
      <g
        id="black"
        style="fill:#000000">
        <path
          d="m 118.40129,158.04097 -6.48438,0.99219 -5.95312,-0.74414 -13.175785,2.38086 h -0.0039 l -1.839843,-0.0234 -0.02344,0.15625 1.851563,0.53711 3.154297,-0.44531 10.037118,-1.93164 5.875,0.75976 6.58007,-1.0332 16.33204,1.91797 3.62694,-0.86914 -0.0273,-0.15625 -3.61329,0.42969 -7.26171,-0.67774 z"
          id="path1203"/>
        <path
          d="m 136.95207,187.92964 -7.03907,3.98633 -12.06835,4.46289 0.0352,0.15235 15.36328,-1.52149 4.41797,-2.56054 3.51758,-2.42383 z"
          id="path1430"/>
        <path
          d="m 96.129802,111.76363 -7.181641,2.44141 -7.326172,1.75781 -1.242187,0.91992 -0.140625,0.57617 1.005859,-0.43555 2.488281,-0.59179 10.375,-0.0664 3.671875,0.49414 3.451168,0.66016 -1.355465,-2.24414 z"
          id="path1952"/>
        <path
          d="m 134.67082,101.0898 -11.47852,1.36328 -0.75781,5.60742 1.26172,0.74414 4.72851,-0.73046 3.75,-0.51563 7.09375,-1.79687 3.40821,0.41796 5.91601,1.95313 1.1543,-1.1543 -7.90234,-5.32422 z"
          id="path1798"/>
        <path
          d="m 88.82902,101.15621 -8.398437,0.36523 -2.945313,3.17969 -0.78125,2.65039 0.841797,0.65234 1.226563,-2.11523 1.394531,-1.20117 1.779297,-0.0645 8.552734,2.97266 3.712891,0.99414 6.519527,0.56641 1.44532,-1.13477 v -3.13086 l -1.15039,-2.33398 -4.078129,-0.93555 z"
          id="path1723"/>
        <path
          d="m 132.05168,109.8105 -1.52149,0.0957 -3.73437,0.91992 -3.13477,4.97656 -0.23633,1.23438 0.14258,0.0625 0.52149,-0.73047 1.29687,-0.36524 6.05859,-0.99218 5.64258,-0.082 h 0.004 l 4.47266,0.83985 h 0.002 l 4.41015,1.54883 1.21094,-0.41407 -4.16601,-2.66406 z"
          id="path2165"/>
      </g>
      <g
        id="dark-brown"
        style="fill:#432818">
        <path
          d="m 146.55754,149.08004 -3.7168,2.87304 h -3.47461 l -1.07617,7.64258 -3.55078,0.85156 -2.81641,-0.33008 7.37305,5.67579 -1.85157,6.69921 6.16211,-0.24804 1.39454,-5.88867 1.03125,-7.95704 z"
          id="path1339"/>
        <path
          d="m 117.00871,117.09175 0.70898,11.06641 5.24024,8.375 0.19726,1.25391 1.49805,1.40039 1.33984,2.81445 1.05664,-1.38672 -0.35547,-2.8789 -0.75585,-0.69141 -2.59961,-4.38477 -0.95508,-4.08984 -1.63477,-2.7793 -0.002,-0.006 -2.89063,-8.55078 z"
          id="path712"/>
        <path
          d="m 96.940348,101.6191 -0.02148,0.1582 3.999992,0.91797 1.09766,2.22852 v 3.02148 l -1.33398,1.04883 -6.599609,-0.57422 1.964843,3.48242 3.703125,3.47656 1.257811,2.08008 3.27344,3.14063 1.81054,-0.17383 1.50586,-5.15235 0.33203,-4.12109 -1.22656,-5.54297 -1.61133,-3.52344 z"
          id="path1792"/>
        <path
          d="m 160.0966,169.63472 -9,2.60742 -5.73438,7.71875 -8.54492,8.08008 4.21289,2.08985 5.23828,-3.93555 8.8711,-8.74219 2.2539,-2.65039 z"
          id="path1428"/>
      </g>
      <g
        id="orange"
        style="fill:#fb8500">
        <path
          d="m 90.461833,107.42183 -0.617188,2.60742 0.113282,0.88477 -0.402344,0.40039 -3.552735,0.69336 -6.603515,2.18945 -4.365235,3.92774 1.06836,0.79883 3.234375,0.42187 0.789062,-0.73828 0.392578,-1.63086 1.171875,-0.86523 7.300782,-1.75391 7.234375,-2.45899 -1.947266,-3.45507 z"
          id="path1950"/>
        <path
          d="m 153.95402,94.712848 -4.42773,12.306642 14.63867,10.28515 -0.375,-5.59765 -0.99414,-5.53125 -2.3125,-5.8125 v -0.849611 l -1.47657,-0.232422 -0.85546,-2.240234 -3.0918,-1.294922 z"
          id="path1652"/>
        <path
          d="m 153.55558,144.03121 -4.58789,2.58203 -2.57812,2.60156 -0.51563,9.16992 -1.02929,7.94336 -1.4004,5.91992 6.84375,0.01 1.54297,-11.75195 z"
          id="path1345"/>
        <path
          d="m 145.51457,208.88668 -3.50586,8.92968 -0.002,0.006 -4.32617,7.02344 3.09961,2.79102 7.27344,-3.90235 2.68555,-3.59179 z"
          id="path1525"/>
      </g>
      <g
        id="brown"
        style="fill:#99582a">
        <path
          d="m 133.32902,194.84175 -15.45703,1.53125 -7.375,-0.0332 -5.74805,-0.82617 8.79102,8.78906 8.52539,0.30078 10.89062,-8.5664 z"
          id="path1501"/>
        <path
          d="m 76.520427,174.69722 1.646484,3.0293 2.125,2.82227 4.791016,4.49218 4.291015,3.11719 4.15625,-4.5625 -9.423828,-7.68945 -4.259766,-0.86328 z"
          id="path872"/>
        <path
          d="m 156.75285,119.25972 -1.33985,0.041 4.25586,4.74219 -0.18554,3.62109 -0.0937,8.20117 5.26758,3.95703 0.14062,1.09766 0.83008,0.66016 0.0723,-11.10352 0.44922,-6.15625 -1.875,-0.21094 v -0.53711 z"
          id="path1068"/>
        <path
          d="m 155.84269,78.224566 -1.97656,4.535157 2.05469,6.371093 -2.02539,5.746094 1.07422,1.003906 3.05664,1.279297 0.86328,2.261719 1.60937,0.255859 -0.3789,-2.470703 1.25586,-5.292969 -0.96094,-6.671875 -1.39844,-3.662109 z"
          id="path1648"/>
        <path
          d="m 123.25675,137.66402 -6.0332,0.82227 -3.78906,3.3457 -2.33594,0.55664 -2.55469,-0.0469 -2.6914,-0.58007 -0.41992,-0.2793 -1.66602,-0.31055 -1.73047,0.26172 -2.529295,1.05664 -0.105469,1.7832 0.984374,0.61524 22.07813,0.74609 0.92382,0.54297 2.71094,-4.32226 -1.3164,-2.76368 z"
          id="path256"/>
      </g>
      <g
        id="pink"
        style="fill:#ffcad4">
        <path
          d="m 144.17082,206.97261 -4.95313,5.85743 -6.18164,5.38867 -1.03906,0.81054 -8.66211,0.66797 2.08203,11.45313 8.60156,-2.84375 3.82618,-3.42578 4.30859,-6.99414 3.45703,-8.8086 z"
          id="path1521"/>
        <path
          d="m 95.198161,192.40816 0.667969,18.37891 6.89258,3.83007 9.64648,4.03711 1.34571,-5.88867 -0.0996,-8.57422 -8.63477,-8.63476 z"
          id="path1497"/>
        <path
          d="m 118.41496,158.52925 -6.58008,1.03321 -5.87891,-0.75977 -10.060543,1.93555 -0.0059,0.1543 6.242183,1.75585 11.17969,0.63086 9.56836,-1.64062 0.01,-0.1543 -3.40235,-1.05273 0.38282,-1.73047 z"
          id="path1205"/>
        <path
          d="m 128.95207,122.75386 -2.07227,1.09961 -3.13476,1.08203 -1.51954,3.65625 0.9629,4.12696 2.62304,4.42578 0.75586,0.6914 3.97461,3.4336 5.19922,2.97461 0.10156,-0.11719 -4.16015,-5.37305 -3.86524,-6.12695 0.43555,-3.56836 z"
          id="path873"/>
        <path
          d="m 77.692302,85.62691 1.960937,15.5625 4.564453,-3.25 5.945313,-0.605469 -5.455078,-8.201172 -0.542969,-3.242187 z"
          id="path836"/>
        <path
          d="m 139.038,73.812457 -4.67382,10.816406 -1.4336,12.115235 3.64258,0.335937 5.70117,1.308594 4.63282,-20.226563 z"
          id="path1646"/>
        <path
          d="m 172.38761,114.06832 -1.61328,0.0703 -1.31445,1.48437 -2.07031,3.94922 1.5625,0.1543 1.46679,-1.8457 1.71875,-0.91602 0.94532,0.13281 0.57617,0.79883 0.30078,2.98242 -0.42188,3.04102 0.18555,7.84375 -0.56836,-0.0449 -1.27344,7.80273 1.63672,-0.54492 1.51368,-5.0332 0.23242,-10.375 -1.01172,-7.70313 z"
          id="path1198"/>
      </g>
      <g
        id="dark-purple"
        style="fill:#6a4c93">
        <path
          d="m 93.399333,183.50386 -4.154297,4.56055 6,4.52539 9.710934,3.11524 5.60157,0.80273 1.66015,-6.8418 -6.96679,-0.37109 -4.21875,-1.58203 -4.023442,-2.14258 z"
          id="path1359"/>
        <path
          d="m 83.145427,155.27339 -0.53125,0.38477 3.904296,7.39844 4.445313,-2.25391 0.0059,-0.002 3.337891,-0.98438 -3.175781,-3.66797 -3.494141,-0.875 z"
          id="path744"/>
        <path
          d="m 137.09465,114.76949 -5.66016,0.082 -6.08399,0.99805 -1.35937,0.38281 -0.5625,0.78906 -0.1543,0.8086 3.70313,2.66406 1.83594,2.47461 1.11328,0.14258 4.97851,-0.67774 7.14063,-0.0332 1.61133,-0.57227 3.98046,-2.98242 0.24805,-1.38672 -0.86719,-0.66406 -1.04297,0.35547 -4.375,-1.53516 z"
          id="path2169"/>
        <path
          d="m 163.5341,158.23238 -7.54102,1.59766 -4.31054,0.59765 -1.55469,11.81836 1.02148,0.14453 8.85157,-2.5625 2.36328,-6.19336 z"
          id="path1347"/>
      </g>
      <g
        id="yellow"
        style="fill:#efef89">
        <path
          d="m 111.10636,228.35347 -8.61328,0.81055 6.17188,6.81445 8.86328,2.6875 9.9707,0.46875 -1.95703,-8.16992 -8.18164,0.39649 z"
          id="path1511"/>
        <path
          d="m 101.76847,170.9941 -11.787106,9.91211 3.388672,2.76367 3.611328,2.06641 1.679688,-1.61133 7.033198,-1.66016 2.94922,-7.4082 -5.56836,-3.52735 z"
          id="path1351"/>
        <path
          d="m 155.62199,119.29488 -3.91211,0.11914 -3.25781,4.51562 -0.57422,7.68165 4.45703,-0.45508 7.30469,-3.44141 0.1914,-3.72851 z"
          id="path1003"/>
        <path
          d="m 71.612223,126.32222 -1.042968,6.69532 1.224609,13.97265 2.162109,0.0254 8.38086,-2.20898 -8.775391,-11.55274 0.25586,-5.16601 z"
          id="path2084"/>
        <path
          d="m 114.1591,66.650348 -6.51563,0.673828 -17.166012,2.191406 -0.173828,3.814453 6.55664,-0.40625 16.30273,2.208984 z"
          id="path687"/>
      </g>
      <g
        id="dark-burgundy"
        style="fill:#720026">
        <path
          d="m 137.67863,192.25582 -4.52734,2.62304 -0.33204,1.06446 -10.89843,8.57226 2.65039,2.7168 0.0332,1.8418 -2.96875,1.7207 10.39063,8.41406 1.16015,-0.90625 -0.91015,-1.6875 5.75,-21.71094 z"
          id="path1515"/>
        <path
          d="m 143.53996,172.08785 -6.03711,0.24219 -1.35352,2.37109 -0.32812,3.82812 -1.24024,1.72852 -4.44336,3.33398 6.82422,4.5293 8.51953,-8.05273 5.80469,-7.81836 -1.0625,-0.15235 z"
          id="path1426"/>
        <path
          d="m 159.42277,135.69136 -0.22266,0.86914 -0.7207,4.37696 -2.56836,19.07226 7.5918,-1.60742 0.61523,-5.29101 0.87305,-1.07032 0.38477,-1.36133 0.53125,-4.21484 -0.17188,-2.91992 -0.10742,-2.16797 -0.68164,-0.54297 -0.14063,-1.09765 z"
          id="path1341"/>
        <path
          d="m 119.71183,158.6816 -0.41211,1.85937 3.5625,1.10157 7.58399,-1.54297 -0.006,-0.15625 z"
          id="path1207"/>
        <path
          d="m 118.6005,102.37886 -4.01171,3.71289 -0.53711,3.45313 2.19336,5.94531 0.79492,1.76758 0.80078,0.13477 0.34961,-0.69727 5.23437,1.19531 0.38672,-2.03125 3.09571,-4.91211 0.004,-0.004 0.002,-0.004 1.67579,-2.00586 -0.10547,-1.0293 -4.75391,0.73633 -1.12305,-0.66406 0.7461,-5.5293 z"
          id="path1796"/>
        <path
          d="m 135.82707,68.802691 -4.79492,2.621094 8.00976,2.572266 7.73242,4.273437 7.21094,4.611328 1.97656,-4.527343 -1.9414,-2.207032 -9.88282,-3.582031 z"
          id="path441"/>
      </g>
      <g
        id="dark-blue"
        style="fill:#274c77;stroke:none;stroke-opacity:1">
        <path
          d="m 170.6923,148.38277 -2.53711,3.21094 -1.21679,0.6582 -0.61915,-0.11133 -1.45898,-0.22656 -0.51172,1.93945 0.90235,0.68946 1.5664,0.17382 0.95313,-1.00586 0.85547,-0.28515 1.11132,-1.75195 1.0918,-3.2168 z"
          id="path1271"/>
        <path
          d="m 153.88371,198.83785 -7.08399,6.31445 -2.74414,1.93164 1.39649,2.04688 0.002,0.002 5.18164,11.16211 2.16797,-3.26953 1.89258,-6.27344 -0.0684,-5.3125 z"
          id="path1523"/>
        <path
          d="m 130.28215,183.498 -3.01954,1.27539 -7.79296,4.6543 -7.41407,0.23438 -1.66015,6.83593 7.49023,0.0352 12.0918,-4.47266 7.1289,-4.03515 z"
          id="path1361"/>
        <path
          d="m 100.32511,144.72847 0.32422,7.03321 4.62891,-1.29883 7.76953,-0.0176 3.41406,-0.16602 3.54883,-2.90234 3.53711,-1.28906 -1.03906,-0.61133 z"
          id="path1067"/>
        <path
          d="m 118.10441,116.51168 -0.39453,0.78711 2.89062,8.55078 1.72071,2.92773 1.54687,-3.7168 3.08008,-1.06445 2.02734,-1.07422 -1.88476,-2.54101 -3.69531,-2.66016 z"
          id="path2161"/>
        <path
          d="m 81.965739,104.46285 -1.861328,0.0684 -1.453125,1.25195 -1.152344,1.98438 -0.708984,-0.55079 -0.703125,0.69922 0.03516,3.31641 1.357422,0.97656 4.158203,-1.83008 8.349609,-0.26757 0.626954,-2.64258 z"
          id="path1790"/>
        <path
          d="m 111.01847,61.326129 -4.50195,0.277344 -12.228515,2.615234 -3.712891,3.144531 -0.105469,2.3125 17.253905,-2.203125 0.23633,-1.726562 z"
          id="path374"/>
      </g>
      <g
        id="dark-red"
        style="fill:#c32f27">
        <path
          d="m 146.28996,185.98043 -5.3125,3.99218 -3.44727,2.375 0.33594,2.54688 -5.75781,21.74219 0.95312,1.76953 6.26563,-5.45899 4.89258,-5.78711 2.70507,-1.90234 z"
          id="path1517"/>
        <path
          d="m 118.7841,155.21089 -2.95117,0.66407 h -0.004 l -0.008,0.002 -3.55469,0.2793 -3.80469,0.0332 -3.08398,-0.46484 -8.246095,3.46093 -2.986328,0.51368 -3.22461,0.95117 0.01953,0.15625 1.851563,0.0234 13.17774,-2.38086 5.95117,0.74414 6.48047,-0.99219 9.05468,1.28906 7.28516,0.67969 3.62891,-0.43164 V 159.582 l -2.05469,-0.23047 -6.38867,-1.9043 -5.10547,-0.42773 z"
          id="path1201"/>
        <path
          d="m 167.36222,129.84761 -1.82031,0.56446 -0.0723,11.00781 0.10937,2.20508 1.34961,0.0566 1.29883,-1.10547 1.68945,-2.33984 0.50781,-1.75586 v -3.1543 l -1.03906,-4.22852 z"
          id="path1265"/>
        <path
          d="m 139.25871,105.60152 -7.11524,1.80273 -3.8164,0.52344 0.0977,0.95508 -1.79492,2.14844 3.91797,-0.9668 1.47852,-0.0918 10.92382,4.41016 0.004,0.002 4.00195,2.56055 0.90625,0.69531 0.6211,-5.26953 v -0.002 l 1.2207,-3.84571 -0.002,-1.7246 -1.15235,1.15234 -5.83007,-1.92578 z"
          id="path1800"/>
        <path
          d="m 110.81925,61.335895 -3.01171,4.351562 -0.2461,1.804687 6.50196,-0.671875 9.3457,1.683594 0.006,0.002 7.82422,2.986328 4.74804,-2.595703 -6.24023,-4.013672 -5.20508,-1.955078 -8.91211,-1.558593 z"
          id="path439"/>
      </g>
      <g
        id="dark-green"
        style="fill:#008000">
        <path
          d="m 155.17082,177.20113 -9.03516,8.90234 0.63477,19.28516 7.1289,-6.35156 z"
          id="path1519"/>
        <path
          d="m 172.10832,116.80074 -1.79297,0.95508 -1.4336,1.80468 -1.41601,-0.14062 -0.93945,2.14062 -0.54102,2.82422 -0.44531,6.08008 0.15625,0.0312 1.84179,-5.68555 1.5293,-1.30468 1.80664,-0.27149 1.15039,1.35547 1.12891,7.28906 0.73437,0.0586 -0.18945,-8.01563 0.42188,-3.03711 -0.3086,-3.04883 -0.63867,-0.88671 z"
          id="path1133"/>
        <path
          d="m 123.38566,145.97652 -3.45312,1.25977 -3.61524,2.95703 1.24024,1.36132 12.32421,6.04493 6.39649,1.90625 2.15039,0.24218 1.09766,-7.79492 h -4.58399 l -3.24609,-0.14062 -4.54492,-1.55274 z"
          id="path1199"/>
        <path
          d="m 79.255754,119.31994 0.845812,0.76123 18.286108,2.02062 3.400006,0.18244 3.66717,-0.73679 0.7201,-1.28861 -1.87057,0.17987 0.0626,0.0217 -3.25809,-3.12511 -3.301644,-0.63352 -3.693149,-0.49684 -10.399539,0.0663 -2.51255,0.59897 -0.915247,0.3952 -0.310857,1.28229"
          id="path1954"/>
        <path
          d="m 149.54191,106.83785 0.002,1.66211 -1.21484,3.83008 -0.60742,5.14843 -0.2461,1.37696 2.39454,0.77343 6.8457,-0.20898 7.56055,4.33789 -0.12305,-6.6543 z"
          id="path1802"/>
        <path
          d="m 94.301677,64.216754 -6.041016,1.626953 -6.138672,7.53125 -5.886719,8.103516 0.115235,0.107421 14.28125,-11.960937 0.09961,-2.185547 3.642578,-3.085937 z"
          id="path262"/>
      </g>
    </g>
    <g
      id="details">
      <g
        id="nose"
        style="fill:#000000">
        <path
          d="m 101.51732,142.58561 2.20761,-0.1571 1.60404,0.14057 0.58705,-0.28939 -0.094,-0.44309 -0.42094,-0.28064 -1.63703,-0.30401 -1.70718,0.25724 -0.75453,0.5886 z"
          id="path448"/>
        <path
          d="m 120.45734,145.48554 1.2758,-0.57656 -0.23978,-0.3886 -0.53744,0.1819 -0.32246,-0.82682 0.0331,-1.33946 -0.7359,-0.91777 -1.39733,-0.55397 -1.48001,0.37207 -1.53789,1.05833 -0.51263,0.8599 -0.0661,0.5457 0.14051,0.24805 0.28939,-0.13229 0.32246,-0.66973 0.74414,-0.57878 0.90124,-0.1819 1.27124,0.45067 0.91041,1.00878 0.2512,0.59917 z"
          id="path450"/>
      </g>
      <g
        id="eyes"
        style="fill:#ffffff">
        <path
          d="m 126.93966,115.17646 2.12813,-0.1637 0.14032,-2.1866 -0.61973,0.26894 -0.87698,0.76005 -0.52618,0.65481 z"
          id="path2289"/>
        <path
          d="m 131.27778,112.40521 -0.0702,0.67819 1.08749,-0.30401 1.49671,-0.0468 0.56127,-0.19876 0.14032,-0.29232 -1.69549,-0.0351 z"
          id="path2291"/>
        <path
          d="m 95.4319,116.19342 2.497005,0.26459 -1.25677,-1.35599 -1.347721,-0.98392 0.148828,0.87643 0.01654,0.678 z"
          id="path2293"/>
        <path
          d="m 92.645507,114.4819 -0.148828,-0.40514 -1.852083,0.68626 0.272852,0.13229 z"
          id="path2295"/>
      </g>
    </g>
  </g>
</svg>
