<svg xmlns="http://www.w3.org/2000/svg" xml:space="preserve" width="779.23163" height="779.23199"
     viewBox="0 0 206.17171 206.1718">
  <circle cx="103.08585" cy="103.08585" r="103.08585" fill="#151515"/>
  <g fill="#deae86">
    <path
      d="m150.4308813 92.06753305-1.36523 1.16406-1.30469-.0547.17578 3.00195-.52539 4.17969-.4043 1.42188 1.54492.23828 2.0586-6.14649zM130.8156513 73.46596305l-4.74415 4.64063-.004.004-7.79492 5.51954 6.94726 2.33789-1.35937 6.97656 4.25-1.49414-.28711-2.6875 2.4082-7.51172zM85.6105713 81.07339305l-2.73438.7207-14.94531 12.74609 8.927734.48047 5.232422-3.91406zM68.6945533 112.54799305l-1.652344 5.08985-.865235 8.08984 6.119141 4.99414 11.816406-9.93945z"/>
  </g>
  <g fill="#f9dcc4">
    <path
      d="m104.9172113 47.54213805-8.85547.912109-13.04492-.269531 4.17968 3.765627 9.19532 1.0293 4.4707-.73438zM87.7043213 71.08510305l-1.9375.38868-1.79883.36328-3.445313-.1836-.625 2.21485-2.642579 2.3125 5.632812 5.77343 2.67578-.70507.0254-2.41407zM108.1886913 91.42885305l-2.73633 4.36133 3.79493 4.31641 4.61328 1.57617 3.44922.15039zM73.1242403 110.35464305l-4.554687 2.30664 15.373048 8.21093 1.31055.53516 2.82617-3.60742-2.83399-2.90039-1.02343-1.91602.21093-.75586-6.326169-1.77929-3.132813.44335z"/>
  </g>
  <g fill="#8f96b2">
    <path
      d="m61.9054903 50.66128305-5.539062 3.96289-.878907 6.66601 2.982422-.31445-.0332-3.28125.619141-.61914.759765-2.57813 2.958985-3.19726zM98.6554913 99.83120305l-3.49219.16992-.79883 6.0332 3.67578-.28906 2.92969-.6582 6.00391 1.79883 5.12109.42968.041-.14843-12.29102-6.0293z"/>
    <path
      d="m72.1847873 59.66323305-8.388672.26953-2.080078.91406-2.027344.89258-1.277344-.91797-2.904296.30664-.759766 6.66407 2.630859.11914 4.289063-3.85938 6.560547-2.17773.0098-.002 3.585938-.69726.492187-.49024zM141.5695513 86.16323305l-13.57031 5.1582-4.05859 1.42578-3.89844 1.1543-2.06836-.0937-.0371.15234 10.73828 5.09766 2.58398-2.60742 4.4336-2.4961 5.12695-3.24609zM64.9347873 105.28042305l-5.125 3.30468 1.083984 3.92969v.004l1.060547 12.38086 4.376953.88867.865235-8.10742 1.630859-5.02539zM105.1633013 111.17299305l-9.66211 1.65821h-.004l-11.22071-.63086-.22461.80273 1.0625 1.98828 2.82618 2.89258 12.82031.11719 3.80469-4.47461z"/>
  </g>
  <g fill="#e8eddf">
    <path
      d="m54.7648653 67.63393305-.990234 8.58399 2.169922 1.73632 4.1875-6.54882.966796-2.56446-2.742187-.35547-.980469-.73242zM59.6769743 30.13979405l-1.251953 1.046875-1.923828 3.890625.140625 15.914059-.292969 3.8418 5.640625-4.03711-1.9375-15.378905zM93.3742413 64.29604305l-3.72656.60547-1.5 5.13281-.62891 1.125-2.08984 7.65625-.0234 2.36328-3.50586 9.9961 1.60156-.44727 3.58985-5.27929 2.5625-3.00782 1.61914-7.77148.60547-7.4668 1.04296-1.9707.5586.0762zM100.0910413 124.48940305l-9.41016.23242-2.9707 7.46289 14.20312.43555z"/>
  </g>
  <g fill="#edede9">
    <path
      d="m111.8566613 46.27065405-4.16601 1.355468-3-.06445-4.04102 4.685544 4.80664.0703 11.40039-1.35547 7.2207.56836.41407-3.585941-5.69922-1.308594-3.58399-.332031zM126.3859613 78.07729305l-16.0918.60938-.45117 3.68945 3.23633 5.12891zM153.1261913 72.77651305l-1.9375.29297-1.59961 1.36328-1.90234 5.87109 1.8418-.57226 1.9082 1.17969 1.01758 4.14062v3.12109l-.53907 1.86915 2.32618-.86719 1.25-7.65821-1.12891-7.28515zM64.3820533 94.39174305l-8.347657 2.20118 3.822266 12.15039 5.095703-3.28516 9.341797-6.74414 2.685547-3.8457-8.845703-.47657zM67.2394743 134.53237305v18.62695l1.408204 3.28516 9.570312 4.13086-.667969-18.38672-5.951172-4.48828z"/>
  </g>
  <g fill="#caf0f8">
    <path
      d="m108.2511913 30.55776305-.23242 9.396484-3.41406 7.763672 3.10937.06836 4.16797-1.355469 3.39649.0332 1.43945-12.146484-7.06055-3.6875zM60.9367403 68.82143305l-.947266 2.51367-4.142578 6.47657-.0293.60156 2.277344.49414 9.820313-.75 9.492187-1.89844 2.628906-2.29883.646485-2.29296-18.322266-2.02344-.826172-.7461zM93.7785413 64.22964305l-.56055.0918.0977.95703 1.62695.42969 1.17969 1.06641 1.63281 14.17773 2.3164 5.10156 2.36524.40625 2.92578-.17187-5.29883-8.4668-.70117-10.9414-.80078-1.78125zM129.7394713 68.42495305l-3.96875 2.97461-1.56054.55273-7.1211.0332-4.97265.67774-1.14063-.14649-.70117 6.32813 15.88086-.59961 4.625-4.52344 3.31836-4.60156-2.01758.0606zM95.3234613 99.99721305l-7.875.0176-4.5625 1.28125-9.73633 4.60742 3.175781 3.66993 3.037109-.52344 8.22461-3.44922 3.05859.46094 3.88086-.0352zM83.1665713 137.57444305l4.24479 1.5918 6.89807.36452 7.39582-.23216 7.93872-4.74305-1.38487-.80176-6.43551-1.29374-14.00697-.43048-7.04276 1.66103-1.66929 1.60252M68.5539283 156.23159305l3.757812 8.49805 12.503911 14.29296 8.54492-.80273.0351-3.07617-8.36328-10.94727-6.867185-3.8164z"/>
  </g>
  <g fill="#ffe5d9">
    <path
      d="m100.1144713 85.90151305-6.8789 3.32031-1.88672-.11523-5.50586-2.10547-2.5 3.67773.88476.62696 1.72461-.26172 1.60547.29883.42188.27929 2.73437.5918 2.58985.0469 2.39257-.57032 3.78711-3.34179 6.02735-.82032-.22071-1.39648-2.8496.16797zM72.8312713 19.12026305l-13.304687 11.144531.371094 5.234375 6.4375.261719 6.320312-12.783203zM141.8332213 77.25112305l-7.35351 3.46289-4.38672.44727-2.42969 7.58203.29297 2.76367 13.57813-5.16211.20507-.79688zM95.6828313 153.85464305l.0996 8.71484 8.21094-1.97656 2.96094-1.7168-.0352-1.99609-2.6543-2.72266zM108.1908713 133.89772305l1.29099.74741 3.02195-1.27593 4.38317-3.28739 1.27659-1.78049.33795-3.92025-13.31531-4.49955-5.24534 4.6588 1.79617 8.01621"/>
  </g>
  <g fill="#fec89a">
    <path
      d="m96.1906513 16.35854405-.99415 8.445313 13.11329 5.916015 1.30664.06836 7.05468 3.683594 4.70313-10.884766-7.92383-2.544922-7.81055-2.978516zM72.2140843 46.89956005l-5.867188.599609-4.576172 3.257814.859375.63476 8.388672-.36328 16.43164.9375-4.1875-3.773434zM140.8488513 90.50112305l-5.27344 3.33984-1.72266 16.46094 4.41211-.61133zM53.9679903 96.54409305l1.234375 13.7168 1.789063 10.49414 1.808593 3.82226 3.316407.3457-1.06836-12.43945-1.070312-3.88672-3.783203-12.02734zM84.7355713 164.06948305l8.5 11.12695-.0332 3 6.31446 3.03906 8.24609-.40234-2.07617-11.42383-11.12695-1.22851z"/>
  </g>
  <g fill="#fff">
    <path
      d="m79.0461153 22.47573205-6.519531.40625-6.322266 12.785156.542969 3.238281 5.421875 8.148438 11.056639 1.294922 12.8418.263672 8.71289-.896485 3.39648-7.730469.23243-9.394531-13.10547-5.912109zM92.8312713 65.05971405l-1.10937 2.09766-.60743 7.49023-1.60937 7.72266-2.54102 2.98242-1.21093 1.7832 5.5625 2.12891 1.95117.11914 6.96289-3.36328-2.32031-5.11328-1.63672-14.21094-1.25196-1.13086-1.61914-.42773zM77.3976783 76.09878305l-9.503907 1.90039-9.789062.74804-2.279297-.49414-.236328 4.76172 8.763672 11.53711h3.810547l14.865238-12.67969zM118.4328313 83.51674305l-5.43945 3.85352.75 1.1875 4.18555 5.4082 2.13086.0957 3.97265-1.17578 1.3711-7.0254zM87.9347913 117.72573305l-2.82422 3.60547 5.60351 3.54883 9.34571-.23243 5.28906-4.69726-4.60742-2.10938zM90.6496313 185.46206305l11.94727 13.29101 1.82617.64258 4.53711-1.15039-.34375-1.06836 3.46875-5.1543-.27735-1.45117-2.18945-1.88672-9.875-.46484z"/>
  </g>
  <g fill="#ca8c67">
    <path
      d="m148.4828913 102.00833305.67222.12065 1.29561-.69895 2.56656-3.24986 2.74437-9.67751-1.6184.53952-2.15894.8058-1.70583 2.36078.17313 3.65631M87.0988513 51.78042305l1.64258 3.58984 1.21875 5.50391-.33789 4.1914 4.15625-.67578 4.85156.88281-2.22461-6.03125.52148-3.35742 4.14258-3.83398-4.68359.76953zM128.9543213 27.78823205l-4.62891 20.207031-.40234 3.48828 7.92968 5.3418 4.39844-12.232424 2.02735-5.748047-2.07227-6.419921zM83.4679913 90.57339305l-1.478517.4121-5.214843 3.89844-2.591797 3.71485-9.06836 6.54687h4.699219l3.472656.86914 9.708982-4.5957-.31836-6.94141-.921872-.57617.0957-1.5918 2.558598-1.07031zM108.7062713 87.29214305l.36914 2.99023-.97851 1.2832 8.99609 10.25977h7.99023l3.72461-2.87891-10.79883-5.12695-5.17773-2.96289zM112.6164313 109.65346305l-7.625 1.55078-.57032 2.24805-3.82617 4.49805 4.58399 2.09765 13.27539 4.48438 1.35937-2.38086 1.85156-6.70898-7.24609-5.57813zM103.9836113 160.43276305l-8.18945 1.9707-1.35351 5.92188 11.17578 1.23633 8.80468-.67774zM130.1535413 173.31362305l-7.16016 3.84375-3.02148-2.72266-3.8418 3.44141-8.55469 2.83008 1.94141 8.09961 2.14648 1.85156.25391 1.33008-3.47656 5.16406.36914 1.14063 2.14648-.83008 11.42773-13.28321 7.8711-10.74804z"/>
  </g>
  <path
    d="m100.5910413 107.75307305-6.48438.99219-5.95312-.74414-13.175785 2.38086h-.0039l-1.839843-.0234-.02344.15625 1.851563.53711 3.154297-.44531 10.037113-1.93164 5.875.75976 6.58007-1.0332 16.33204 1.91797 3.62695-.86914-.0273-.15625-3.61328.42969-7.26172-.67774zM119.1418213 137.64174305l-7.03907 3.98633-12.06835 4.46289.0352.15235 15.36328-1.52149 4.41797-2.56054 3.51758-2.42383zM78.3195533 61.47573305l-7.181641 2.44141-7.326172 1.75781-1.242187.91992-.140625.57617 1.005859-.43555 2.488281-.59179 10.375-.0664 3.671875.49414 3.451168.66016-1.355465-2.24414zM116.8605713 50.80190305l-11.47852 1.36328-.75781 5.60742 1.26172.74414 4.72851-.73046 3.75-.51563 7.09375-1.79687 3.40821.41796 5.91601 1.95313 1.1543-1.1543-7.90234-5.32422zM71.0187713 50.86831305l-8.398437.36523-2.945313 3.17969-.78125 2.65039.841797.65234 1.226563-2.11523 1.394531-1.20117 1.779297-.0645 8.552734 2.97266 3.712891.99414 6.519527.56641 1.44532-1.13477v-3.13086l-1.15039-2.33398-4.078129-.93555zM114.2414313 59.52260305l-1.52149.0957-3.73437.91992-3.13477 4.97656-.23633 1.23438.14258.0625.52149-.73047 1.29687-.36524 6.05859-.99218 5.64258-.082h.004l4.47266.83985h.002l4.41015 1.54883 1.21094-.41407-4.16601-2.66406z"/>
  <g fill="#432818">
    <path
      d="m128.7472913 98.79214305-3.7168 2.87304h-3.47461l-1.07617 7.64258-3.55078.85156-2.81641-.33008 7.37305 5.67579-1.85157 6.69921 6.16211-.24804 1.39454-5.88867 1.03125-7.95704zM99.1984613 66.80385305l.70898 11.06641 5.24024 8.375.19726 1.25391 1.49805 1.40039 1.33984 2.81445 1.05664-1.38672-.35547-2.8789-.75585-.69141-2.59961-4.38477-.95508-4.08984-1.63477-2.7793-.002-.006-2.89063-8.55078zM79.1300993 51.33120305l-.02148.1582 3.999996.91797 1.09766 2.22852v3.02148l-1.33398 1.04883-6.599613-.57422 1.964843 3.48242 3.703125 3.47656 1.257815 2.08008 3.27344 3.14063 1.81054-.17383 1.50586-5.15235.33203-4.12109-1.22656-5.54297-1.61133-3.52344zM142.2863513 119.34682305l-9 2.60742-5.73438 7.71875-8.54492 8.08008 4.21289 2.08985 5.23828-3.93555 8.8711-8.74219 2.2539-2.65039z"/>
  </g>
  <g fill="#fb8500">
    <path
      d="m72.6515843 57.13393305-.617188 2.60742.113282.88477-.402344.40039-3.552735.69336-6.603515 2.18945-4.365235 3.92774 1.06836.79883 3.234375.42187.789062-.73828.392578-1.63086 1.171875-.86523 7.300782-1.75391 7.234375-2.45899-1.947266-3.45507zM136.1437713 44.42495105l-4.42773 12.306642 14.63867 10.28515-.375-5.59765-.99414-5.53125-2.3125-5.8125v-.849611l-1.47657-.232422-.85546-2.240234-3.0918-1.294922zM135.7453313 93.74331305l-4.58789 2.58203-2.57812 2.60156-.51563 9.16992-1.02929 7.94336-1.4004 5.91992 6.84375.01 1.54297-11.75195zM127.7043213 158.59878305l-3.50586 8.92968-.002.006-4.32617 7.02344 3.09961 2.79102 7.27344-3.90235 2.68555-3.59179z"/>
  </g>
  <g fill="#99582a">
    <path
      d="m115.5187713 144.55385305-15.45703 1.53125-7.375-.0332-5.74805-.82617 8.79102 8.78906 8.52539.30078 10.89062-8.5664zM58.7101783 124.40932305l1.646484 3.0293 2.125 2.82227 4.791016 4.49218 4.291015 3.11719 4.15625-4.5625-9.423828-7.68945-4.259766-.86328zM138.9426013 68.97182305l-1.33985.041 4.25586 4.74219-.18554 3.62109-.0937 8.20117 5.26758 3.95703.14062 1.09766.83008.66016.0723-11.10352.44922-6.15625-1.875-.21094v-.53711zM138.0324413 27.93666905l-1.97656 4.535157 2.05469 6.371093-2.02539 5.746094 1.07422 1.003906 3.05664 1.279297.86328 2.261719 1.60937.255859-.3789-2.470703 1.25586-5.292969-.96094-6.671875-1.39844-3.662109zM105.4465013 87.37612305l-6.0332.82227-3.78906 3.3457-2.33594.55664-2.55469-.0469-2.6914-.58007-.41992-.2793-1.66602-.31055-1.73047.26172-2.529295 1.05664-.105469 1.7832.984374.61524 22.07813.74609.92382.54297 2.71094-4.32226-1.3164-2.76368z"/>
  </g>
  <g fill="#ffcad4">
    <path
      d="m126.3605713 156.68471305-4.95313 5.85743-6.18164 5.38867-1.03906.81054-8.66211.66797 2.08203 11.45313 8.60156-2.84375 3.82618-3.42578 4.30859-6.99414 3.45703-8.8086zM77.3879123 142.12026305l.667969 18.37891 6.89258 3.83007 9.64648 4.03711 1.34571-5.88867-.0996-8.57422-8.63477-8.63476zM100.6047113 108.24135305l-6.58008 1.03321-5.87891-.75977-10.060543 1.93555-.0059.1543 6.242183 1.75585 11.17969.63086 9.56836-1.64062.01-.1543-3.40235-1.05273.38282-1.73047zM111.1418213 72.46596305l-2.07227 1.09961-3.13476 1.08203-1.51954 3.65625.9629 4.12696 2.62304 4.42578.75586.6914 3.97461 3.4336 5.19922 2.97461.10156-.11719-4.16015-5.37305-3.86524-6.12695.43555-3.56836zM59.8820533 35.33901305l1.960937 15.5625 4.564453-3.25 5.945313-.605469-5.455078-8.201172-.542969-3.242187zM121.2277513 23.52456005l-4.67382 10.816406-1.4336 12.115235 3.64258.335937 5.70117 1.308594 4.63282-20.226563zM154.5773613 63.78042305l-1.61328.0703-1.31445 1.48437-2.07031 3.94922 1.5625.1543 1.46679-1.8457 1.71875-.91602.94532.13281.57617.79883.30078 2.98242-.42188 3.04102.18555 7.84375-.56836-.0449-1.27344 7.80273 1.63672-.54492 1.51368-5.0332.23242-10.375-1.01172-7.70313z"/>
  </g>
  <g fill="#6a4c93">
    <path
      d="m75.5890843 133.21596305-4.154297 4.56055 6 4.52539 9.710934 3.11524 5.60157.80273 1.66015-6.8418-6.96679-.37109-4.21875-1.58203-4.023442-2.14258zM65.3351783 104.98549305l-.53125.38477 3.904296 7.39844 4.445313-2.25391.0059-.002 3.337891-.98438-3.175781-3.66797-3.494141-.875zM119.2844013 64.48159305l-5.66016.082-6.08399.99805-1.35937.38281-.5625.78906-.1543.8086 3.70313 2.66406 1.83594 2.47461 1.11328.14258 4.97851-.67774 7.14063-.0332 1.61133-.57227 3.98046-2.98242.24805-1.38672-.86719-.66406-1.04297.35547-4.375-1.53516zM145.7238513 107.94448305l-7.54102 1.59766-4.31054.59765-1.55469 11.81836 1.02148.14453 8.85157-2.5625 2.36328-6.19336z"/>
  </g>
  <g fill="#efef89" stroke="none">
    <path
      d="m93.2961113 178.06557305-8.61328.81055 6.17188 6.81445 8.86328 2.6875 9.9707.46875-1.95703-8.16992-8.18164.39649zM83.9582213 120.70620305l-11.787106 9.91211 3.388672 2.76367 3.611328 2.06641 1.679688-1.61133 7.033198-1.66016 2.94922-7.4082-5.56836-3.52735zM137.8117413 69.00698305l-3.91211.11914-3.25781 4.51562-.57422 7.68165 4.45703-.45508 7.30469-3.44141.1914-3.72851zM53.8019743 76.03432305l-1.042968 6.69532 1.224609 13.97265 2.162109.0254 8.38086-2.20898-8.775391-11.55274.25586-5.16601zM96.3488513 16.36245105l-6.51563.673828-17.166012 2.191406-.173828 3.814453 6.55664-.40625 16.30273 2.208984z"/>
  </g>
  <g fill="#720026">
    <path
      d="m119.8683813 141.96792305-4.52734 2.62304-.33204 1.06446-10.89843 8.57226 2.65039 2.7168.0332 1.8418-2.96875 1.7207 10.39063 8.41406 1.16015-.90625-.91015-1.6875 5.75-21.71094zM125.7297113 121.79995305l-6.03711.24219-1.35352 2.37109-.32812 3.82812-1.24024 1.72852-4.44336 3.33398 6.82422 4.5293 8.51953-8.05273 5.80469-7.81836-1.0625-.15235zM141.6125213 85.40346305l-.22266.86914-.7207 4.37696-2.56836 19.07226 7.5918-1.60742.61523-5.29101.87305-1.07032.38477-1.36133.53125-4.21484-.17188-2.91992-.10742-2.16797-.68164-.54297-.14063-1.09765zM101.9015813 108.39370305l-.41211 1.85937 3.5625 1.10157 7.58399-1.54297-.006-.15625zM100.7902513 52.09096305l-4.01171 3.71289-.53711 3.45313 2.19336 5.94531.79492 1.76758.80078.13477.34961-.69727 5.23437 1.19531.38672-2.03125 3.09571-4.91211.004-.004.002-.004 1.67579-2.00586-.10547-1.0293-4.75391.73633-1.12305-.66406.7461-5.5293zM118.0168213 18.51479405l-4.79492 2.621094 8.00976 2.572266 7.73242 4.273437 7.21094 4.611328 1.97656-4.527343-1.9414-2.207032-9.88282-3.582031z"/>
  </g>
  <g fill="#274c77">
    <path
      d="m152.8820513 98.09487305-2.53711 3.21094-1.21679.6582-.61915-.11133-1.45898-.22656-.51172 1.93945.90235.68946 1.5664.17382.95313-1.00586.85547-.28515 1.11132-1.75195 1.0918-3.2168zM136.0734613 148.54995305l-7.08399 6.31445-2.74414 1.93164 1.39649 2.04688.002.002 5.18164 11.16211 2.16797-3.26953 1.89258-6.27344-.0684-5.3125zM112.4719013 133.21010305l-3.01954 1.27539-7.79296 4.6543-7.41407.23438-1.66015 6.83593 7.49023.0352 12.0918-4.47266 7.1289-4.03515zM82.5148613 94.44057305l.32422 7.03321 4.62891-1.29883 7.76953-.0176 3.41406-.16602 3.54883-2.90234 3.53711-1.28906-1.03906-.61133zM100.2941613 66.22378305l-.39453.78711 2.89062 8.55078 1.72071 2.92773 1.54687-3.7168 3.08008-1.06445 2.02734-1.07422-1.88476-2.54101-3.69531-2.66016zM64.1554903 54.17495305l-1.861328.0684-1.453125 1.25195-1.152344 1.98438-.708984-.55079-.703125.69922.03516 3.31641 1.357422.97656 4.158203-1.83008 8.349609-.26757.626954-2.64258zM93.2082213 11.03823205l-4.50195.277344-12.228515 2.615234-3.712891 3.144531-.105469 2.3125 17.253905-2.203125.23633-1.726562z"/>
  </g>
  <g fill="#c32f27">
    <path
      d="m128.4797113 135.69253305-5.3125 3.99218-3.44727 2.375.33594 2.54688-5.75781 21.74219.95312 1.76953 6.26563-5.45899 4.89258-5.78711 2.70507-1.90234zM100.9738513 104.92299305l-2.95117.66407h-.004l-.008.002-3.55469.2793-3.80469.0332-3.08398-.46484-8.246095 3.46093-2.986328.51368-3.22461.95117.01953.15625 1.851563.0234 13.177739-2.38086 5.95117.74414 6.48047-.99219 9.05468 1.28906 7.28516.67969 3.62891-.43164v-.15625l-2.05469-.23047-6.38867-1.9043-5.10547-.42773zM149.5519713 79.55971305l-1.82031.56446-.0723 11.00781.10937 2.20508 1.34961.0566 1.29883-1.10547 1.68945-2.33984.50781-1.75586v-3.1543l-1.03906-4.22852zM121.4484613 55.31362305l-7.11524 1.80273-3.8164.52344.0977.95508-1.79492 2.14844 3.91797-.9668 1.47852-.0918 10.92382 4.41016.004.002 4.00195 2.56055.90625.69531.6211-5.26953v-.002l1.2207-3.84571-.002-1.7246-1.15235 1.15234-5.83007-1.92578zM93.0090013 11.04799805l-3.01171 4.351562-.2461 1.804687 6.50196-.671875 9.3457 1.683594.006.002 7.82422 2.986328 4.74804-2.595703-6.24023-4.013672-5.20508-1.955078-8.91211-1.558593z"/>
  </g>
  <g fill="green">
    <path
      d="m137.3605713 126.91323305-9.03516 8.90234.63477 19.28516 7.1289-6.35156zM154.2980713 66.51284305l-1.79297.95508-1.4336 1.80468-1.41601-.14062-.93945 2.14062-.54102 2.82422-.44531 6.08008.15625.0312 1.84179-5.68555 1.5293-1.30468 1.80664-.27149 1.15039 1.35547 1.12891 7.28906.73437.0586-.18945-8.01563.42188-3.03711-.3086-3.04883-.63867-.88671zM105.5754113 95.68862305l-3.45312 1.25977-3.61524 2.95703 1.24024 1.36132 12.32421 6.04493 6.39649 1.90625 2.15039.24218 1.09766-7.79492h-4.58399l-3.24609-.14062-4.54492-1.55274zM61.4455053 69.03204305l.845812.76123 18.286108 2.02062 3.400006.18244 3.66717-.73679.7201-1.28861-1.87057.17987.0626.0217-3.25809-3.12511-3.301644-.63352-3.693149-.49684-10.399539.0663-2.51255.59897-.915247.3952-.310857 1.28229M131.7316613 56.54995305l.002 1.66211-1.21484 3.83008-.60742 5.14843-.2461 1.37696 2.39454.77343 6.8457-.20898 7.56055 4.33789-.12305-6.6543zM76.4914283 13.92885705l-6.041016 1.626953-6.138672 7.53125-5.886719 8.103516.115235.107421 14.28125-11.960937.09961-2.185547 3.642578-3.085937z"/>
  </g>
  <path
    d="m83.7070713 92.29771305 2.20761-.1571 1.60404.14057.58705-.28939-.094-.44309-.42094-.28064-1.63703-.30401-1.70718.25724-.75453.5886zM102.6470913 95.19764305l1.2758-.57656-.23978-.3886-.53744.1819-.32246-.82682.0331-1.33946-.7359-.91777-1.39733-.55397-1.48001.37207-1.53789 1.05833-.51263.8599-.0661.5457.14051.24805.28939-.13229.32246-.66973.74414-.57878.90124-.1819 1.27124.45067.91041 1.00878.2512.59917z"/>
  <g fill="#fff">
    <path
      d="m109.1294113 64.88856305 2.12813-.1637.14032-2.1866-.61973.26894-.87698.76005-.52618.65481zM113.4675313 62.11731305l-.0702.67819 1.08749-.30401 1.49671-.0468.56127-.19876.14032-.29232-1.69549-.0351zM77.6216513 65.90552305l2.497005.26459-1.25677-1.35599-1.347721-.98392.148828.87643.01654.678zM74.8352583 64.19400305l-.148828-.40514-1.852083.68626.272852.13229z"/>
  </g>
</svg>
