<?xml version="1.0" standalone="no"?>
<!DOCTYPE svg PUBLIC "-//W3C//DTD SVG 20010904//EN"
 "http://www.w3.org/TR/2001/REC-SVG-20010904/DTD/svg10.dtd">
<svg version="1.0" xmlns="http://www.w3.org/2000/svg"
 width="700.000000pt" height="700.000000pt" viewBox="0 0 700.000000 700.000000"
 preserveAspectRatio="xMidYMid meet">
<metadata>
Created by potrace 1.14, written by Peter Selinger 2001-2017
</metadata>
<g transform="translate(0.000000,700.000000) scale(0.100000,-0.100000)"
fill="#000000" stroke="none">
<path d="M3295 6993 c-371 -30 -635 -82 -934 -185 -919 -317 -1674 -1011
-2064 -1898 -348 -793 -390 -1690 -117 -2511 296 -891 926 -1615 1770 -2035
1056 -524 2321 -477 3334 126 261 155 450 303 682 535 296 295 490 562 670
925 527 1060 475 2335 -135 3350 -242 401 -588 776 -968 1048 -523 374 -1124
590 -1787 642 -119 9 -356 11 -451 3z m140 -582 c127 -23 190 -41 302 -85 78
-30 194 -71 259 -91 130 -41 281 -120 500 -261 l131 -84 32 -106 33 -105 -33
-93 c-39 -109 -37 -114 49 -153 45 -20 56 -30 69 -63 12 -31 21 -40 40 -40 12
0 23 -6 23 -13 0 -8 18 -58 40 -111 42 -105 75 -264 83 -398 l4 -77 -81 57
c-45 31 -151 106 -236 166 -85 60 -219 153 -297 207 l-142 98 -138 6 c-111 6
-171 3 -305 -14 -92 -12 -209 -21 -260 -21 l-94 0 -66 -67 c-62 -63 -67 -72
-73 -123 -6 -48 -2 -68 28 -151 20 -53 42 -110 51 -127 11 -21 19 -87 27 -218
l12 -188 84 -133 c82 -131 108 -181 99 -190 -2 -3 -48 -11 -100 -18 l-96 -14
-70 -60 c-62 -53 -76 -60 -126 -67 -67 -8 -148 0 -197 21 -51 21 -109 19 -161
-7 -51 -24 -70 -63 -40 -85 13 -10 18 -34 22 -128 2 -63 8 -115 11 -115 3 0
37 9 74 19 56 16 104 20 263 22 183 1 197 0 217 -19 12 -11 112 -65 222 -120
l200 -101 -75 6 c-41 3 -124 20 -184 38 -103 30 -113 31 -163 19 -76 -17 -278
-27 -343 -15 -53 9 -59 7 -185 -46 -71 -30 -157 -61 -190 -69 l-60 -13 -57 63
c-46 50 -66 66 -102 75 -61 15 -226 15 -226 -1 0 -12 106 -216 120 -231 4 -5
39 7 78 27 61 31 74 34 105 25 39 -11 50 -9 317 44 162 33 166 33 260 20 82
-12 108 -11 193 2 54 8 116 15 138 15 40 0 40 0 34 -32 -6 -33 -6 -33 55 -51
61 -18 62 -18 197 9 105 21 142 25 163 17 38 -14 249 -175 249 -190 2 -27 -58
-220 -77 -253 -13 -21 -24 -63 -28 -105 -4 -44 -14 -80 -26 -98 -27 -38 -167
-143 -220 -164 -24 -10 -108 -56 -186 -102 l-142 -83 -238 4 c-229 5 -239 6
-307 32 -38 15 -98 43 -133 62 -34 19 -67 34 -72 34 -27 0 -226 136 -238 162
-2 4 -48 44 -104 89 -108 88 -131 98 -288 114 l-66 7 -31 71 c-48 110 -86 365
-133 897 -33 371 -38 465 -30 511 6 31 33 235 62 455 l51 399 4 350 3 350 32
67 c30 65 39 74 274 270 l243 202 258 33 c322 42 479 60 518 62 17 0 102 -12
190 -28z m520 -1520 c-14 -12 -105 -22 -105 -12 0 12 24 18 75 20 22 1 35 -3
30 -8z m-175 -56 c0 -33 -2 -35 -35 -35 -42 0 -44 12 -9 45 36 33 44 31 44
-10z m1504 -34 c41 -42 59 -180 57 -436 l-2 -200 -70 -236 c-38 -129 -69 -239
-69 -243 0 -10 -75 -104 -103 -128 -19 -18 -82 -25 -90 -10 -2 4 2 48 10 97 7
50 11 111 8 138 -5 45 -5 47 19 47 29 0 104 81 123 132 17 48 16 133 -4 216
-20 88 -51 118 -110 109 -25 -4 -33 -3 -30 6 2 7 17 50 32 97 31 94 58 126
114 132 49 5 67 -27 86 -147 33 -213 40 -197 39 83 0 125 -1 235 -2 245 -1 9
-13 22 -26 28 -20 10 -31 8 -61 -11 -20 -12 -43 -33 -52 -46 -10 -16 -25 -24
-44 -24 l-29 0 29 59 c63 124 117 153 175 92z m-710 -147 l118 -3 57 -62 c83
-92 80 -84 70 -174 -4 -44 -8 -133 -8 -198 -1 -65 -6 -137 -11 -160 -6 -23
-33 -206 -60 -406 -27 -200 -52 -366 -54 -369 -3 -2 -36 -10 -73 -16 l-68 -11
-24 -192 -24 -193 -114 0 c-62 0 -113 3 -113 8 0 4 9 41 20 82 26 99 58 350
68 530 5 80 8 146 7 147 -1 2 -28 -17 -60 -42 l-57 -45 -192 0 c-178 0 -196 2
-267 25 -70 24 -82 32 -138 95 -34 37 -61 73 -61 80 0 13 63 113 97 154 20 24
23 35 18 70 -4 23 -15 50 -25 61 -41 46 -109 183 -121 241 -12 57 -11 65 10
115 31 72 34 75 94 95 29 9 58 21 65 27 22 17 199 36 347 37 158 1 182 8 270
79 42 34 55 40 80 35 17 -4 83 -8 149 -10z m-2053 -2399 c109 -83 111 -84 282
-139 l172 -55 145 -146 145 -145 130 0 129 0 53 -52 c71 -71 72 -97 3 -136
-27 -15 -49 -30 -47 -34 3 -10 335 -278 345 -278 4 0 17 8 28 18 10 9 64 56
119 104 55 48 136 130 180 183 44 52 82 95 85 95 11 0 45 -65 132 -252 l87
-188 -179 -243 c-234 -317 -545 -681 -603 -706 -81 -34 -176 -53 -211 -41 -24
8 -119 106 -363 378 -181 202 -413 463 -515 579 l-185 213 -87 196 -86 196 0
315 0 315 66 -47 c36 -26 115 -84 175 -130z"/>
<path d="M2178 5263 c-55 -4 -59 -6 -107 -59 -30 -34 -54 -73 -61 -100 -7 -25
-17 -47 -21 -50 -5 -3 -9 -32 -9 -64 0 -51 3 -62 24 -75 21 -14 28 -13 92 14
61 25 86 30 212 36 l142 7 11 43 11 43 61 -17 c58 -17 64 -21 94 -72 18 -29
29 -57 25 -60 -13 -12 -285 -97 -385 -119 -100 -23 -147 -48 -147 -79 0 -9 -7
-26 -15 -38 -14 -20 -14 -23 2 -31 10 -5 175 -27 366 -48 315 -34 356 -37 420
-26 47 8 77 19 88 31 21 26 66 190 74 271 5 49 1 88 -15 155 -26 115 -68 215
-89 215 -9 0 -115 7 -236 15 -205 13 -400 16 -537 8z m352 -443 c-8 -5 -24 -9
-35 -9 l-20 0 20 9 c11 5 27 9 35 9 13 1 13 0 0 -9z m164 -39 l29 -30 -39 6
c-21 3 -39 6 -40 7 -1 1 -4 16 -7 34 -6 29 -5 31 11 23 9 -5 30 -23 46 -40z"/>
</g>
</svg>
